# xmcd CD database file
#
# Track frame offsets:
#	182
#	12537
#	23800
#	34312
#	47437
#	58022
#	69560
#	81852
#	93622
#	103950
#	115290
#	126332
#	141900
#	153960
#	166330
#	178270
#	189205
#	201425
#	212265
#	224225
#	234955
#	249295
#	259865
#	273685
#	288390
#	302580
#
# Disc length: 4218 seconds
#
# Revision: 10
# Processed by: cddbd v1.5.2PL0 Copyright (c) Steve Scherf et al.
# Submitted via: CDex 1.99.1
#
DISCID=8710781a
DTITLE=T-Bone Walker - T-Bone Walker  The Complete Imperial Recordings, 1950-1954  [CD1]
DYEAR=1991
DGENRE=Blues
TTITLE0=Glamour Girl (mono)
TTITLE1=Strollin' with Bone (mono)
TTITLE2=The Sun Went Down (mono)
TTITLE3=You Don't Love Me (mono)
TTITLE4=Travelin' Blues (mono)
TTITLE5=The Hustle is On (78 rpm version) (mono)
TTITLE6=Baby Broke My Heart (78 rpm version) (mono)
TTITLE7=Evil Hearted Woman (alternate) (mono)
TTITLE8=I Walked Away (mono)
TTITLE9=No Reason (mono)
TTITLE10=Look Me in the Eye (mono)
TTITLE11=Too Lazy (alt) (mono)
TTITLE12=Alimony Blues (mono)
TTITLE13=Life is Too Short (mono)
TTITLE14=You Don't Understand (mono)
TTITLE15=Welcome Blues (Say Pretty Baby) (mono)
TTITLE16=I Get So Weary (mono)
TTITLE17=You Just Wanted to Use Me (mono)
TTITLE18=Tell Me What's the Reason (mono)
TTITLE19=I'm About to Lose My Mind (mono)
TTITLE20=Cold, Cold Feeling (mono)
TTITLE21=News for My Baby (mono)
TTITLE22=Get These Blues Off Me (mono)
TTITLE23=I Got the Blues Again (mono)
TTITLE24=Through with Women (mono)
TTITLE25=Street Walking Woman (mono)
EXTD=YEAR: 1991
EXTT0=
EXTT1=
EXTT2=
EXTT3=
EXTT4=
EXTT5=
EXTT6=
EXTT7=
EXTT8=
EXTT9=
EXTT10=
EXTT11=
EXTT12=
EXTT13=
EXTT14=
EXTT15=
EXTT16=
EXTT17=
EXTT18=
EXTT19=
EXTT20=
EXTT21=
EXTT22=
EXTT23=
EXTT24=
EXTT25=
PLAYORDER=
